CzechStreet.com SiteRip (aug 23, 2011)

No censorship and no fiction, this is the real streets of the Czech! Czech women and girls are in fact able to make money for absolutely anything.
Unlike other websites with similar themes, where everything is recorded and arranged in advance, here you will see a real amateur from street.
Welcome to the Czech Republic, the heart of Europe, where live the most beautiful girls in the world. They are beautiful, but they have deep pockets and a low standard of living and probably this is the reason that local women and girls show off for money unbelievable stunts on the street or in a park, public toilets, in the train, but everywhere, where only is possible to give a little fuck.

#######################################

Video
ID                               : 1
Format                           : VC-1
Format profile                   : MP@ML
Codec ID                         : WMV3
Codec ID/Info                    : Windows Media Video 9
Codec ID/Hint                    : WMV3
Description of the codec         : Windows Media Video 9 - Professional
Duration                         : 42mn 31s
Bit rate mode                    : Constant
Bit rate                         : 2 000 Kbps
Width                            : 720 pixels
Height                           : 576 pixels
Display aspect ratio             : 4:3
Frame rate                       : 25.000 fps
Standard                         : PAL
Bit depth                        : 8 bits
Scan type                        : Progressive
Compression mode                 : Lossy
Bits/(Pixel*Frame)               : 0.193
Stream size                      : 608 MiB (95%)
Language                         : Czech

Audio
ID                               : 2
Format                           : WMA
Format version                   : Version 2
Codec ID                         : 161
Codec ID/Info                    : Windows Media Audio
Description of the codec         : Windows Media Audio 9.2 -  96 kbps, 44 kHz, stereo 1-pass CBR
Duration                         : 42mn 31s
Bit rate mode                    : Constant
Bit rate                         : 96.0 Kbps
Channel(s)                       : 2 channels
Sampling rate                    : 44.1 KHz
Bit depth                        : 16 bits
Stream size                      : 29.2 MiB (5%)
Language                         : Czech

#######################################